<?xml version="1.0" encoding="iso-8859-1"?>
<!-- Generator: Adobe Illustrator 19.0.0, SVG Export Plug-In . SVG Version: 6.00 Build 0)  -->
<svg version="1.1" id="Capa_1" xmlns="http://www.w3.org/2000/svg" xmlns:xlink="http://www.w3.org/1999/xlink" x="0px" y="0px"
	 viewBox="0 0 512 512" style="enable-background:new 0 0 512 512;" xml:space="preserve">
<g>
	<rect x="35.776" y="413.771" style="fill:#344A5E;" width="64" height="64.107"/>
	<rect x="223.957" y="413.771" style="fill:#344A5E;" width="64.107" height="64.107"/>
	<rect x="412.149" y="413.771" style="fill:#344A5E;" width="64.107" height="64.107"/>
</g>
<g>
	<rect y="379.584" style="fill:#415A6B;" width="512" height="38.357"/>
	<rect y="473.621" style="fill:#415A6B;" width="512" height="38.357"/>
</g>
<path style="fill:#E8EAE9;" d="M406.976,0.021H91.413c-17.664,0-32,14.325-32,32v315.563c0,17.664,14.336,32,32,32h315.563
	c17.664,0,32-14.336,32-32V32.021C438.976,14.347,424.651,0.021,406.976,0.021"/>
<polygon style="fill:#8AD7F8;" points="296.331,0.032 296.331,91.979 281.6,77.045 265.397,93.259 249.184,77.045 232.971,93.259 
	216.747,77.045 202.037,91.979 202.037,0.032 "/>
<g>
	<path style="fill:#F3705A;" d="M229.664,275.819c-1.248-30.891-24.619-55.595-53.472-55.595c-28.864,0-52.224,24.693-53.472,55.595
		H229.664z"/>
	<path style="fill:#F3705A;" d="M167.349,326.251c-7.317,0-13.259-5.963-13.259-13.269c0-2.453,1.995-4.437,4.427-4.437
		c2.432,0,4.427,1.984,4.427,4.437c0,2.421,1.973,4.416,4.405,4.416c2.432,0,4.416-2.005,4.416-4.416v-49.899
		c0-2.443,1.984-4.427,4.427-4.427c2.443,0,4.427,1.984,4.427,4.427v49.899C180.629,320.288,174.667,326.251,167.349,326.251"/>
	<polygon style="fill:#F3705A;" points="319.883,243.424 308.331,243.424 308.331,300.245 285.088,300.245 285.088,243.424 
		273.579,243.424 296.736,220.235 	"/>
	<polygon style="fill:#F3705A;" points="375.669,243.424 364.107,243.424 364.107,300.245 340.875,300.245 340.875,243.424 
		329.376,243.424 352.523,220.235 	"/>
	<rect x="273.963" y="313.547" style="fill:#F3705A;" width="101.333" height="12.704"/>
</g>
<g>
</g>
<g>
</g>
<g>
</g>
<g>
</g>
<g>
</g>
<g>
</g>
<g>
</g>
<g>
</g>
<g>
</g>
<g>
</g>
<g>
</g>
<g>
</g>
<g>
</g>
<g>
</g>
<g>
</g>
</svg>
