<?xml version="1.0" encoding="iso-8859-1"?>
<!-- Generator: Adobe Illustrator 19.0.0, SVG Export Plug-In . SVG Version: 6.00 Build 0)  -->
<svg version="1.1" id="Capa_1" xmlns="http://www.w3.org/2000/svg" xmlns:xlink="http://www.w3.org/1999/xlink" x="0px" y="0px"
	 viewBox="0 0 512.002 512.002" style="enable-background:new 0 0 512.002 512.002;" xml:space="preserve">
<path style="fill:#7FB239;" d="M441.168,44.947l69.264,201.808c5.152,15.024-2.784,31.248-17.808,36.4L117.456,411.923
	c-15.024,5.152-31.248-2.768-36.4-17.792L11.792,192.307c-5.168-15.024,2.768-31.248,17.792-36.4L404.752,27.139
	C419.776,21.987,436,29.907,441.168,44.947z"/>
<path style="fill:#719D34;" d="M105.28,333.635L68.048,225.171c18.512-6.352,28.368-26.512,22.016-45.024l281.824-96.72
	c6.352,18.512,26.512,28.368,45.024,22.016l37.232,108.464c-18.512,6.352-28.368,26.512-22.016,45.024l-281.808,96.72
	C143.968,337.139,123.808,327.267,105.28,333.635z"/>
<g>
	
		<ellipse transform="matrix(-0.3246 -0.9458 0.9458 -0.3246 138.2185 537.7167)" style="fill:#7FB239;" cx="261.088" cy="219.511" rx="64.317" ry="49.646"/>
	<path style="fill:#7FB239;" d="M171.024,250.451c4.144,12.08-2.368,25.376-14.432,29.52c-12.224,4.192-25.392-2.352-29.536-14.432
		s2.224-25.328,14.432-29.536C153.568,231.859,166.88,238.371,171.024,250.451z"/>
	<path style="fill:#7FB239;" d="M395.152,173.523c4.144,12.08-2.368,25.376-14.432,29.52c-12.208,4.192-25.376-2.368-29.536-14.432
		c-4.144-12.08,2.224-25.328,14.432-29.52C377.696,154.931,391.008,161.443,395.152,173.523z"/>
</g>
<path style="fill:#8CC63E;" d="M453.952,244.419v213.36c0,15.888-12.768,28.656-28.656,28.656H28.656
	C12.768,486.435,0,473.667,0,457.779v-213.36c0-15.888,12.768-28.656,28.656-28.656h396.64
	C441.184,215.763,453.952,228.531,453.952,244.419z"/>
<path style="fill:#7FB239;" d="M42.56,408.435V293.763c19.568,0,35.44-15.872,35.44-35.44h297.952
	c0,19.568,15.872,35.44,35.44,35.44v114.672c-19.568,0-35.44,15.872-35.44,35.44H78C78,424.307,62.128,408.435,42.56,408.435z"/>
<g>
	<ellipse style="fill:#8CC63E;" cx="226.976" cy="351.107" rx="49.648" ry="64.32"/>
	<path style="fill:#8CC63E;" d="M131.744,351.107c0,12.768-10.48,23.232-23.232,23.232c-12.912,0-23.248-10.464-23.248-23.232
		s10.336-23.248,23.248-23.248C121.264,327.859,131.744,338.339,131.744,351.107z"/>
	<path style="fill:#8CC63E;" d="M368.704,351.107c0,12.768-10.464,23.232-23.232,23.232c-12.912,0-23.248-10.464-23.248-23.232
		s10.336-23.248,23.248-23.248C358.224,327.859,368.704,338.339,368.704,351.107z"/>
</g>
<g>
</g>
<g>
</g>
<g>
</g>
<g>
</g>
<g>
</g>
<g>
</g>
<g>
</g>
<g>
</g>
<g>
</g>
<g>
</g>
<g>
</g>
<g>
</g>
<g>
</g>
<g>
</g>
<g>
</g>
</svg>
