<?xml version="1.0" encoding="iso-8859-1"?>
<!-- Generator: Adobe Illustrator 19.0.0, SVG Export Plug-In . SVG Version: 6.00 Build 0)  -->
<svg version="1.1" id="Capa_1" xmlns="http://www.w3.org/2000/svg" xmlns:xlink="http://www.w3.org/1999/xlink" x="0px" y="0px"
	 viewBox="0 0 512 512" style="enable-background:new 0 0 512 512;" xml:space="preserve">
<path style="fill:#428DC3;" d="M512,88.648v334.72c0,10.16-8.512,17.968-18.848,17.376L13.408,412.68
	c-4.432-0.256-8.336-2.976-10.736-6.832c-1.6-2.72-2.672-6.032-2.672-9.44v-280.8c0-8.528,6.016-15.856,13.408-16.288
	l479.744-28.064C503.488,70.664,512,78.488,512,88.648z"/>
<path style="fill:#59A5E0;" d="M512,112.28v311.088c0,10.16-8.512,17.968-18.848,17.376L13.408,412.68
	c-4.432-0.256-8.336-2.976-10.736-6.832c-1.6-2.72-2.672-6.032-2.672-9.44v-2.32c41.456-113.52,197.168-222.608,421.376-267.632
	C451.36,120.472,481.568,115.672,512,112.28z"/>
<path style="fill:#65B1EF;" d="M512,247.88v175.488c0,10.16-8.512,17.968-18.848,17.376L13.408,412.68
	c-4.432-0.256-8.336-2.976-10.736-6.832c51.376-69.68,158.192-129.632,298.656-153.12C372.576,240.824,444.448,239.56,512,247.88z"
	/>
<path style="fill:#E9EFF4;" d="M82.96,213.016l-37.44,0.592c-7.6,0.112-13.728-6.8-13.728-15.472V156.2
	c0-8.656,6.128-15.936,13.728-16.272l37.424-1.6c7.856-0.336,14.256,6.576,14.256,15.456v42.96
	C97.216,205.608,90.816,212.888,82.96,213.016z"/>
<path style="fill:#BBC7D1;" d="M77.936,151.432l18.72-0.704c-0.256-1.408-0.528-2.768-1.088-4l-17.632,0.704v-8.896l-3.552,0.16
	v8.88l-20.448,0.8v-8.8l-3.488,0.144v8.8l-17.088,0.672c-0.528,1.248-0.8,2.592-1.04,3.984l18.128-0.688v9.856l-18.64,0.64v3.936
	l18.64-0.608v17.232l-18.64,0.496v3.936l18.64-0.464v9.856l-18.64,0.4v0.352c0,1.28,0.384,2.4,0.624,3.568l18.016-0.368v12.176
	l3.488-0.048v-12.192l20.448-0.416v12.288l3.552-0.048v-12.304l18.624-0.368c0.256-1.216,0.656-2.384,0.656-3.68v-0.368
	l-19.28,0.416v-9.952l19.28-0.48v-4.032l-19.28,0.512v-17.408l19.28-0.64v-4.032l-19.28,0.672
	C77.936,161.416,77.936,151.432,77.936,151.432z M74.384,196.856l-20.448,0.448V152.36l20.448-0.784V196.856z"/>
<path style="fill:#FFD93B;" d="M467.968,184.424c0,22.272-18.176,40.528-40.304,40.736c-21.824,0.224-39.28-17.216-39.28-38.928
	s17.456-39.936,39.28-40.72C449.792,144.728,467.968,162.136,467.968,184.424z"/>
<path style="fill:#E24B4B;" d="M414.336,185.64c0,21.904-17.568,39.824-38.944,40.032c-21.088,0.208-37.968-16.928-37.968-38.272
	s16.88-39.264,37.968-40.016C396.784,146.616,414.336,163.752,414.336,185.64z"/>
<path style="fill:#5B5F63;" d="M456.816,328.904l-220.576-5.152c-6.512-0.144-11.792-5.904-11.792-12.848l0,0
	c0-6.944,5.264-12.496,11.792-12.4l220.576,3.232c7.584,0.112,13.76,6.304,13.76,13.84l0,0
	C470.576,323.128,464.4,329.08,456.816,328.904z"/>
<g>
	<polygon style="fill:#FFFFFF;" points="173.424,384.936 109.904,382.056 109.904,360.52 173.424,362.92 	"/>
	<polygon style="fill:#FFFFFF;" points="265.248,389.112 197.6,386.04 197.6,363.832 265.248,366.376 	"/>
	<polygon style="fill:#FFFFFF;" points="363.216,393.56 291.024,390.28 291.024,367.352 363.216,370.072 	"/>
	<polygon style="fill:#FFFFFF;" points="467.968,398.312 390.752,394.808 390.752,371.096 467.968,374.008 	"/>
</g>
<g>
</g>
<g>
</g>
<g>
</g>
<g>
</g>
<g>
</g>
<g>
</g>
<g>
</g>
<g>
</g>
<g>
</g>
<g>
</g>
<g>
</g>
<g>
</g>
<g>
</g>
<g>
</g>
<g>
</g>
</svg>
